<svg width="214" height="154" fill="none" xmlns="http://www.w3.org/2000/svg"><circle cx="2.769" cy="1.776" r="1.776" fill="#EBEBEB"/><circle cx="13.769" cy="1.776" r="1.776" fill="#EBEBEB"/><circle cx="24.769" cy="1.776" r="1.776" fill="#EBEBEB"/><circle cx="71.769" cy="1.776" r="1.776" fill="#EBEBEB"/><circle cx="82.769" cy="1.776" r="1.776" fill="#EBEBEB"/><circle cx="93.769" cy="1.776" r="1.776" fill="#EBEBEB"/><circle cx="104.769" cy="1.776" r="1.776" fill="#EBEBEB"/><circle cx="79.769" cy="1.776" r="1.776" fill="#EBEBEB"/><circle cx="90.769" cy="1.776" r="1.776" fill="#EBEBEB"/><circle cx="101.769" cy="1.776" r="1.776" fill="#EBEBEB"/><circle cx="112.769" cy="1.776" r="1.776" fill="#EBEBEB"/><circle cx="123.769" cy="1.776" r="1.776" fill="#EBEBEB"/><circle cx="134.769" cy="1.776" r="1.776" fill="#EBEBEB"/><circle cx="145.769" cy="1.776" r="1.776" fill="#EBEBEB"/><circle cx="156.769" cy="1.776" r="1.776" fill="#EBEBEB"/><circle cx="167.769" cy="1.776" r="1.776" fill="#EBEBEB"/><circle cx="178.769" cy="1.776" r="1.776" fill="#EBEBEB"/><circle cx="189.769" cy="1.776" r="1.776" fill="#EBEBEB"/><circle cx="200.769" cy="1.776" r="1.776" fill="#EBEBEB"/><circle cx="211.769" cy="1.776" r="1.776" fill="#EBEBEB"/><circle cx="2.769" cy="11.776" r="1.776" fill="#EBEBEB"/><circle cx="13.769" cy="11.776" r="1.776" fill="#EBEBEB"/><circle cx="24.769" cy="11.776" r="1.776" fill="#EBEBEB"/><circle cx="71.769" cy="11.776" r="1.776" fill="#EBEBEB"/><circle cx="82.769" cy="11.776" r="1.776" fill="#EBEBEB"/><circle cx="93.769" cy="11.776" r="1.776" fill="#EBEBEB"/><circle cx="104.769" cy="11.776" r="1.776" fill="#EBEBEB"/><circle cx="79.769" cy="11.776" r="1.776" fill="#EBEBEB"/><circle cx="90.769" cy="11.776" r="1.776" fill="#EBEBEB"/><circle cx="101.769" cy="11.776" r="1.776" fill="#EBEBEB"/><circle cx="112.769" cy="11.776" r="1.776" fill="#EBEBEB"/><circle cx="123.769" cy="11.776" r="1.776" fill="#EBEBEB"/><circle cx="134.769" cy="11.776" r="1.776" fill="#EBEBEB"/><circle cx="145.769" cy="11.776" r="1.776" fill="#EBEBEB"/><circle cx="156.769" cy="11.776" r="1.776" fill="#EBEBEB"/><circle cx="167.769" cy="11.776" r="1.776" fill="#EBEBEB"/><circle cx="178.769" cy="11.776" r="1.776" fill="#EBEBEB"/><circle cx="189.769" cy="11.776" r="1.776" fill="#EBEBEB"/><circle cx="200.769" cy="11.776" r="1.776" fill="#EBEBEB"/><circle cx="211.769" cy="11.776" r="1.776" fill="#EBEBEB"/><circle cx="2.769" cy="21.776" r="1.776" fill="#EBEBEB"/><circle cx="13.769" cy="21.776" r="1.776" fill="#EBEBEB"/><circle cx="24.769" cy="21.776" r="1.776" fill="#EBEBEB"/><circle cx="71.769" cy="21.776" r="1.776" fill="#EBEBEB"/><circle cx="82.769" cy="21.776" r="1.776" fill="#EBEBEB"/><circle cx="93.769" cy="21.776" r="1.776" fill="#EBEBEB"/><circle cx="104.769" cy="21.776" r="1.776" fill="#EBEBEB"/><circle cx="79.769" cy="21.776" r="1.776" fill="#EBEBEB"/><circle cx="90.769" cy="21.776" r="1.776" fill="#EBEBEB"/><circle cx="101.769" cy="21.776" r="1.776" fill="#EBEBEB"/><circle cx="112.769" cy="21.776" r="1.776" fill="#EBEBEB"/><circle cx="123.769" cy="21.776" r="1.776" fill="#EBEBEB"/><circle cx="134.769" cy="21.776" r="1.776" fill="#EBEBEB"/><circle cx="145.769" cy="21.776" r="1.776" fill="#EBEBEB"/><circle cx="156.769" cy="21.776" r="1.776" fill="#EBEBEB"/><circle cx="167.769" cy="21.776" r="1.776" fill="#EBEBEB"/><circle cx="178.769" cy="21.776" r="1.776" fill="#EBEBEB"/><circle cx="189.769" cy="21.776" r="1.776" fill="#EBEBEB"/><circle cx="200.769" cy="21.776" r="1.776" fill="#EBEBEB"/><circle cx="211.769" cy="21.776" r="1.776" fill="#EBEBEB"/><circle cx="2.769" cy="31.776" r="1.776" fill="#EBEBEB"/><circle cx="13.769" cy="31.776" r="1.776" fill="#EBEBEB"/><circle cx="24.769" cy="31.776" r="1.776" fill="#EBEBEB"/><circle cx="71.769" cy="31.776" r="1.776" fill="#EBEBEB"/><circle cx="82.769" cy="31.776" r="1.776" fill="#EBEBEB"/><circle cx="93.769" cy="31.776" r="1.776" fill="#EBEBEB"/><circle cx="104.769" cy="31.776" r="1.776" fill="#EBEBEB"/><circle cx="79.769" cy="31.776" r="1.776" fill="#EBEBEB"/><circle cx="90.769" cy="31.776" r="1.776" fill="#EBEBEB"/><circle cx="101.769" cy="31.776" r="1.776" fill="#EBEBEB"/><circle cx="112.769" cy="31.776" r="1.776" fill="#EBEBEB"/><circle cx="123.769" cy="31.776" r="1.776" fill="#EBEBEB"/><circle cx="134.769" cy="31.776" r="1.776" fill="#EBEBEB"/><circle cx="145.769" cy="31.776" r="1.776" fill="#EBEBEB"/><circle cx="156.769" cy="31.776" r="1.776" fill="#EBEBEB"/><circle cx="167.769" cy="31.776" r="1.776" fill="#EBEBEB"/><circle cx="178.769" cy="31.776" r="1.776" fill="#EBEBEB"/><circle cx="189.769" cy="31.776" r="1.776" fill="#EBEBEB"/><circle cx="200.769" cy="31.776" r="1.776" fill="#EBEBEB"/><circle cx="211.769" cy="31.776" r="1.776" fill="#EBEBEB"/><circle cx="2.769" cy="41.776" r="1.776" fill="#EBEBEB"/><circle cx="13.769" cy="41.776" r="1.776" fill="#EBEBEB"/><circle cx="24.769" cy="41.776" r="1.776" fill="#EBEBEB"/><circle cx="71.769" cy="41.776" r="1.776" fill="#EBEBEB"/><circle cx="82.769" cy="41.776" r="1.776" fill="#EBEBEB"/><circle cx="93.769" cy="41.776" r="1.776" fill="#EBEBEB"/><circle cx="104.769" cy="41.776" r="1.776" fill="#EBEBEB"/><circle cx="79.769" cy="41.776" r="1.776" fill="#EBEBEB"/><circle cx="90.769" cy="41.776" r="1.776" fill="#EBEBEB"/><circle cx="101.769" cy="41.776" r="1.776" fill="#EBEBEB"/><circle cx="112.769" cy="41.776" r="1.776" fill="#EBEBEB"/><circle cx="123.769" cy="41.776" r="1.776" fill="#EBEBEB"/><circle cx="134.769" cy="41.776" r="1.776" fill="#EBEBEB"/><circle cx="145.769" cy="41.776" r="1.776" fill="#EBEBEB"/><circle cx="156.769" cy="41.776" r="1.776" fill="#EBEBEB"/><circle cx="167.769" cy="41.776" r="1.776" fill="#EBEBEB"/><circle cx="178.769" cy="41.776" r="1.776" fill="#EBEBEB"/><circle cx="189.769" cy="41.776" r="1.776" fill="#EBEBEB"/><circle cx="200.769" cy="41.776" r="1.776" fill="#EBEBEB"/><circle cx="211.769" cy="41.776" r="1.776" fill="#EBEBEB"/><circle cx="2.769" cy="51.776" r="1.776" fill="#EBEBEB"/><circle cx="13.769" cy="51.776" r="1.776" fill="#EBEBEB"/><circle cx="24.769" cy="51.776" r="1.776" fill="#EBEBEB"/><circle cx="71.769" cy="51.776" r="1.776" fill="#EBEBEB"/><circle cx="82.769" cy="51.776" r="1.776" fill="#EBEBEB"/><circle cx="93.769" cy="51.776" r="1.776" fill="#EBEBEB"/><circle cx="104.769" cy="51.776" r="1.776" fill="#EBEBEB"/><circle cx="79.769" cy="51.776" r="1.776" fill="#EBEBEB"/><circle cx="90.769" cy="51.776" r="1.776" fill="#EBEBEB"/><circle cx="101.769" cy="51.776" r="1.776" fill="#EBEBEB"/><circle cx="112.769" cy="51.776" r="1.776" fill="#EBEBEB"/><circle cx="123.769" cy="51.776" r="1.776" fill="#EBEBEB"/><circle cx="134.769" cy="51.776" r="1.776" fill="#EBEBEB"/><circle cx="145.769" cy="51.776" r="1.776" fill="#EBEBEB"/><circle cx="156.769" cy="51.776" r="1.776" fill="#EBEBEB"/><circle cx="167.769" cy="51.776" r="1.776" fill="#EBEBEB"/><circle cx="178.769" cy="51.776" r="1.776" fill="#EBEBEB"/><circle cx="189.769" cy="51.776" r="1.776" fill="#EBEBEB"/><circle cx="200.769" cy="51.776" r="1.776" fill="#EBEBEB"/><circle cx="211.769" cy="51.776" r="1.776" fill="#EBEBEB"/><circle cx="2.769" cy="61.776" r="1.776" fill="#EBEBEB"/><circle cx="13.769" cy="61.776" r="1.776" fill="#EBEBEB"/><circle cx="24.769" cy="61.776" r="1.776" fill="#EBEBEB"/><circle cx="71.769" cy="61.776" r="1.776" fill="#EBEBEB"/><circle cx="82.769" cy="61.776" r="1.776" fill="#EBEBEB"/><circle cx="93.769" cy="61.776" r="1.776" fill="#EBEBEB"/><circle cx="104.769" cy="61.776" r="1.776" fill="#EBEBEB"/><circle cx="79.769" cy="61.776" r="1.776" fill="#EBEBEB"/><circle cx="90.769" cy="61.776" r="1.776" fill="#EBEBEB"/><circle cx="101.769" cy="61.776" r="1.776" fill="#EBEBEB"/><circle cx="112.769" cy="61.776" r="1.776" fill="#EBEBEB"/><circle cx="123.769" cy="61.776" r="1.776" fill="#EBEBEB"/><circle cx="134.769" cy="61.776" r="1.776" fill="#EBEBEB"/><circle cx="145.769" cy="61.776" r="1.776" fill="#EBEBEB"/><circle cx="156.769" cy="61.776" r="1.776" fill="#EBEBEB"/><circle cx="167.769" cy="61.776" r="1.776" fill="#EBEBEB"/><circle cx="178.769" cy="61.776" r="1.776" fill="#EBEBEB"/><circle cx="189.769" cy="61.776" r="1.776" fill="#EBEBEB"/><circle cx="200.769" cy="61.776" r="1.776" fill="#EBEBEB"/><circle cx="211.769" cy="61.776" r="1.776" fill="#EBEBEB"/><circle cx="2.769" cy="71.776" r="1.776" fill="#EBEBEB"/><circle cx="13.769" cy="71.776" r="1.776" fill="#EBEBEB"/><circle cx="24.769" cy="71.776" r="1.776" fill="#EBEBEB"/><circle cx="71.769" cy="71.776" r="1.776" fill="#EBEBEB"/><circle cx="82.769" cy="71.776" r="1.776" fill="#EBEBEB"/><circle cx="93.769" cy="71.776" r="1.776" fill="#EBEBEB"/><circle cx="104.769" cy="71.776" r="1.776" fill="#EBEBEB"/><circle cx="79.769" cy="71.776" r="1.776" fill="#EBEBEB"/><circle cx="90.769" cy="71.776" r="1.776" fill="#EBEBEB"/><circle cx="101.769" cy="71.776" r="1.776" fill="#EBEBEB"/><circle cx="112.769" cy="71.776" r="1.776" fill="#EBEBEB"/><circle cx="123.769" cy="71.776" r="1.776" fill="#EBEBEB"/><circle cx="134.769" cy="71.776" r="1.776" fill="#EBEBEB"/><circle cx="145.769" cy="71.776" r="1.776" fill="#EBEBEB"/><circle cx="156.769" cy="71.776" r="1.776" fill="#EBEBEB"/><circle cx="167.769" cy="71.776" r="1.776" fill="#EBEBEB"/><circle cx="178.769" cy="71.776" r="1.776" fill="#EBEBEB"/><circle cx="189.769" cy="71.776" r="1.776" fill="#EBEBEB"/><circle cx="200.769" cy="71.776" r="1.776" fill="#EBEBEB"/><circle cx="211.769" cy="71.776" r="1.776" fill="#EBEBEB"/><circle cx="2.769" cy="81.776" r="1.776" fill="#EBEBEB"/><circle cx="13.769" cy="81.776" r="1.776" fill="#EBEBEB"/><circle cx="24.769" cy="81.776" r="1.776" fill="#EBEBEB"/><circle cx="71.769" cy="81.776" r="1.776" fill="#EBEBEB"/><circle cx="82.769" cy="81.776" r="1.776" fill="#EBEBEB"/><circle cx="93.769" cy="81.776" r="1.776" fill="#EBEBEB"/><circle cx="104.769" cy="81.776" r="1.776" fill="#EBEBEB"/><circle cx="79.769" cy="81.776" r="1.776" fill="#EBEBEB"/><circle cx="90.769" cy="81.776" r="1.776" fill="#EBEBEB"/><circle cx="101.769" cy="81.776" r="1.776" fill="#EBEBEB"/><circle cx="112.769" cy="81.776" r="1.776" fill="#EBEBEB"/><circle cx="123.769" cy="81.776" r="1.776" fill="#EBEBEB"/><circle cx="134.769" cy="81.776" r="1.776" fill="#EBEBEB"/><circle cx="145.769" cy="81.776" r="1.776" fill="#EBEBEB"/><circle cx="156.769" cy="81.776" r="1.776" fill="#EBEBEB"/><circle cx="167.769" cy="81.776" r="1.776" fill="#EBEBEB"/><circle cx="178.769" cy="81.776" r="1.776" fill="#EBEBEB"/><circle cx="189.769" cy="81.776" r="1.776" fill="#EBEBEB"/><circle cx="200.769" cy="81.776" r="1.776" fill="#EBEBEB"/><circle cx="211.769" cy="81.776" r="1.776" fill="#EBEBEB"/><circle cx="2.769" cy="91.776" r="1.776" fill="#EBEBEB"/><circle cx="13.769" cy="91.776" r="1.776" fill="#EBEBEB"/><circle cx="24.769" cy="91.776" r="1.776" fill="#EBEBEB"/><circle cx="71.769" cy="91.776" r="1.776" fill="#EBEBEB"/><circle cx="82.769" cy="91.776" r="1.776" fill="#EBEBEB"/><circle cx="93.769" cy="91.776" r="1.776" fill="#EBEBEB"/><circle cx="104.769" cy="91.776" r="1.776" fill="#EBEBEB"/><circle cx="79.769" cy="91.776" r="1.776" fill="#EBEBEB"/><circle cx="90.769" cy="91.776" r="1.776" fill="#EBEBEB"/><circle cx="101.769" cy="91.776" r="1.776" fill="#EBEBEB"/><circle cx="112.769" cy="91.776" r="1.776" fill="#EBEBEB"/><circle cx="123.769" cy="91.776" r="1.776" fill="#EBEBEB"/><circle cx="134.769" cy="91.776" r="1.776" fill="#EBEBEB"/><circle cx="145.769" cy="91.776" r="1.776" fill="#EBEBEB"/><circle cx="156.769" cy="91.776" r="1.776" fill="#EBEBEB"/><circle cx="167.769" cy="91.776" r="1.776" fill="#EBEBEB"/><circle cx="178.769" cy="91.776" r="1.776" fill="#EBEBEB"/><circle cx="189.769" cy="91.776" r="1.776" fill="#EBEBEB"/><circle cx="200.769" cy="91.776" r="1.776" fill="#EBEBEB"/><circle cx="211.769" cy="91.776" r="1.776" fill="#EBEBEB"/><circle cx="2.769" cy="101.776" r="1.776" fill="#EBEBEB"/><circle cx="13.769" cy="101.776" r="1.776" fill="#EBEBEB"/><circle cx="24.769" cy="101.776" r="1.776" fill="#EBEBEB"/><circle cx="71.769" cy="101.776" r="1.776" fill="#EBEBEB"/><circle cx="82.769" cy="101.776" r="1.776" fill="#EBEBEB"/><circle cx="93.769" cy="101.776" r="1.776" fill="#EBEBEB"/><circle cx="104.769" cy="101.776" r="1.776" fill="#EBEBEB"/><circle cx="79.769" cy="101.776" r="1.776" fill="#EBEBEB"/><circle cx="90.769" cy="101.776" r="1.776" fill="#EBEBEB"/><circle cx="101.769" cy="101.776" r="1.776" fill="#EBEBEB"/><circle cx="112.769" cy="101.776" r="1.776" fill="#EBEBEB"/><circle cx="123.769" cy="101.776" r="1.776" fill="#EBEBEB"/><circle cx="134.769" cy="101.776" r="1.776" fill="#EBEBEB"/><circle cx="145.769" cy="101.776" r="1.776" fill="#EBEBEB"/><circle cx="156.769" cy="101.776" r="1.776" fill="#EBEBEB"/><circle cx="167.769" cy="101.776" r="1.776" fill="#EBEBEB"/><circle cx="178.769" cy="101.776" r="1.776" fill="#EBEBEB"/><circle cx="189.769" cy="101.776" r="1.776" fill="#EBEBEB"/><circle cx="200.769" cy="101.776" r="1.776" fill="#EBEBEB"/><circle cx="211.769" cy="101.776" r="1.776" fill="#EBEBEB"/><circle cx="2.769" cy="111.776" r="1.776" fill="#EBEBEB"/><circle cx="13.769" cy="111.776" r="1.776" fill="#EBEBEB"/><circle cx="24.769" cy="111.776" r="1.776" fill="#EBEBEB"/><circle cx="71.769" cy="111.776" r="1.776" fill="#EBEBEB"/><circle cx="82.769" cy="111.776" r="1.776" fill="#EBEBEB"/><circle cx="93.769" cy="111.776" r="1.776" fill="#EBEBEB"/><circle cx="104.769" cy="111.776" r="1.776" fill="#EBEBEB"/><circle cx="79.769" cy="111.776" r="1.776" fill="#EBEBEB"/><circle cx="90.769" cy="111.776" r="1.776" fill="#EBEBEB"/><circle cx="101.769" cy="111.776" r="1.776" fill="#EBEBEB"/><circle cx="112.769" cy="111.776" r="1.776" fill="#EBEBEB"/><circle cx="123.769" cy="111.776" r="1.776" fill="#EBEBEB"/><circle cx="134.769" cy="111.776" r="1.776" fill="#EBEBEB"/><circle cx="145.769" cy="111.776" r="1.776" fill="#EBEBEB"/><circle cx="156.769" cy="111.776" r="1.776" fill="#EBEBEB"/><circle cx="167.769" cy="111.776" r="1.776" fill="#EBEBEB"/><circle cx="178.769" cy="111.776" r="1.776" fill="#EBEBEB"/><circle cx="189.769" cy="111.776" r="1.776" fill="#EBEBEB"/><circle cx="200.769" cy="111.776" r="1.776" fill="#EBEBEB"/><circle cx="211.769" cy="111.776" r="1.776" fill="#EBEBEB"/><circle cx="2.769" cy="121.776" r="1.776" fill="#EBEBEB"/><circle cx="13.769" cy="121.776" r="1.776" fill="#EBEBEB"/><circle cx="24.769" cy="121.776" r="1.776" fill="#EBEBEB"/><circle cx="71.769" cy="121.776" r="1.776" fill="#EBEBEB"/><circle cx="82.769" cy="121.776" r="1.776" fill="#EBEBEB"/><circle cx="93.769" cy="121.776" r="1.776" fill="#EBEBEB"/><circle cx="104.769" cy="121.776" r="1.776" fill="#EBEBEB"/><circle cx="79.769" cy="121.776" r="1.776" fill="#EBEBEB"/><circle cx="90.769" cy="121.776" r="1.776" fill="#EBEBEB"/><circle cx="101.769" cy="121.776" r="1.776" fill="#EBEBEB"/><circle cx="112.769" cy="121.776" r="1.776" fill="#EBEBEB"/><circle cx="123.769" cy="121.776" r="1.776" fill="#EBEBEB"/><circle cx="134.769" cy="121.776" r="1.776" fill="#EBEBEB"/><circle cx="145.769" cy="121.776" r="1.776" fill="#EBEBEB"/><circle cx="156.769" cy="121.776" r="1.776" fill="#EBEBEB"/><circle cx="167.769" cy="121.776" r="1.776" fill="#EBEBEB"/><circle cx="178.769" cy="121.776" r="1.776" fill="#EBEBEB"/><circle cx="189.769" cy="121.776" r="1.776" fill="#EBEBEB"/><circle cx="200.769" cy="121.776" r="1.776" fill="#EBEBEB"/><circle cx="211.769" cy="121.776" r="1.776" fill="#EBEBEB"/><circle cx="2.769" cy="131.776" r="1.776" fill="#EBEBEB"/><circle cx="13.769" cy="131.776" r="1.776" fill="#EBEBEB"/><circle cx="24.769" cy="131.776" r="1.776" fill="#EBEBEB"/><circle cx="71.769" cy="131.776" r="1.776" fill="#EBEBEB"/><circle cx="82.769" cy="131.776" r="1.776" fill="#EBEBEB"/><circle cx="93.769" cy="131.776" r="1.776" fill="#EBEBEB"/><circle cx="104.769" cy="131.776" r="1.776" fill="#EBEBEB"/><circle cx="79.769" cy="131.776" r="1.776" fill="#EBEBEB"/><circle cx="90.769" cy="131.776" r="1.776" fill="#EBEBEB"/><circle cx="101.769" cy="131.776" r="1.776" fill="#EBEBEB"/><circle cx="112.769" cy="131.776" r="1.776" fill="#EBEBEB"/><circle cx="123.769" cy="131.776" r="1.776" fill="#EBEBEB"/><circle cx="134.769" cy="131.776" r="1.776" fill="#EBEBEB"/><circle cx="145.769" cy="131.776" r="1.776" fill="#EBEBEB"/><circle cx="156.769" cy="131.776" r="1.776" fill="#EBEBEB"/><circle cx="167.769" cy="131.776" r="1.776" fill="#EBEBEB"/><circle cx="178.769" cy="131.776" r="1.776" fill="#EBEBEB"/><circle cx="189.769" cy="131.776" r="1.776" fill="#EBEBEB"/><circle cx="200.769" cy="131.776" r="1.776" fill="#EBEBEB"/><circle cx="211.769" cy="131.776" r="1.776" fill="#EBEBEB"/><circle cx="2.769" cy="141.776" r="1.776" fill="#EBEBEB"/><circle cx="13.769" cy="141.776" r="1.776" fill="#EBEBEB"/><circle cx="24.769" cy="141.776" r="1.776" fill="#EBEBEB"/><circle cx="71.769" cy="141.776" r="1.776" fill="#EBEBEB"/><circle cx="82.769" cy="141.776" r="1.776" fill="#EBEBEB"/><circle cx="93.769" cy="141.776" r="1.776" fill="#EBEBEB"/><circle cx="104.769" cy="141.776" r="1.776" fill="#EBEBEB"/><circle cx="79.769" cy="141.776" r="1.776" fill="#EBEBEB"/><circle cx="90.769" cy="141.776" r="1.776" fill="#EBEBEB"/><circle cx="101.769" cy="141.776" r="1.776" fill="#EBEBEB"/><circle cx="112.769" cy="141.776" r="1.776" fill="#EBEBEB"/><circle cx="123.769" cy="141.776" r="1.776" fill="#EBEBEB"/><circle cx="134.769" cy="141.776" r="1.776" fill="#EBEBEB"/><circle cx="145.769" cy="141.776" r="1.776" fill="#EBEBEB"/><circle cx="156.769" cy="141.776" r="1.776" fill="#EBEBEB"/><circle cx="167.769" cy="141.776" r="1.776" fill="#EBEBEB"/><circle cx="178.769" cy="141.776" r="1.776" fill="#EBEBEB"/><circle cx="189.769" cy="141.776" r="1.776" fill="#EBEBEB"/><circle cx="200.769" cy="141.776" r="1.776" fill="#EBEBEB"/><circle cx="211.769" cy="141.776" r="1.776" fill="#EBEBEB"/><circle cx="2.769" cy="151.776" r="1.776" fill="#EBEBEB"/><circle cx="13.769" cy="151.776" r="1.776" fill="#EBEBEB"/><circle cx="24.769" cy="151.776" r="1.776" fill="#EBEBEB"/><circle cx="71.769" cy="151.776" r="1.776" fill="#EBEBEB"/><circle cx="82.769" cy="151.776" r="1.776" fill="#EBEBEB"/><circle cx="93.769" cy="151.776" r="1.776" fill="#EBEBEB"/><circle cx="104.769" cy="151.776" r="1.776" fill="#EBEBEB"/><circle cx="79.769" cy="151.776" r="1.776" fill="#EBEBEB"/><circle cx="90.769" cy="151.776" r="1.776" fill="#EBEBEB"/><circle cx="101.769" cy="151.776" r="1.776" fill="#EBEBEB"/><circle cx="112.769" cy="151.776" r="1.776" fill="#EBEBEB"/><circle cx="123.769" cy="151.776" r="1.776" fill="#EBEBEB"/><circle cx="134.769" cy="151.776" r="1.776" fill="#EBEBEB"/><circle cx="145.769" cy="151.776" r="1.776" fill="#EBEBEB"/><circle cx="156.769" cy="151.776" r="1.776" fill="#EBEBEB"/><circle cx="167.769" cy="151.776" r="1.776" fill="#EBEBEB"/><circle cx="178.769" cy="151.776" r="1.776" fill="#EBEBEB"/><circle cx="189.769" cy="151.776" r="1.776" fill="#EBEBEB"/><circle cx="200.769" cy="151.776" r="1.776" fill="#EBEBEB"/><circle cx="211.769" cy="151.776" r="1.776" fill="#EBEBEB"/></svg>